<svg xmlns="http://www.w3.org/2000/svg" viewBox="0 0 120 120"><path fill="#5193FF" d="M60 118.1c32.4 0 58.7-9.3 58.7-20.7 0-11.4-26.3-20.7-58.7-20.7S1.2 86 1.2 97.4c0 11.5 26.3 20.7 58.8 20.7" opacity=".8"/><path fill="#60BD72" d="M23.2 14.9l9.9 75.7c0 5.1 12 9.3 26.9 9.3s26.9-4.2 26.9-9.3l9.9-75.7"/><path fill="#0CA54B" d="M96.8 13.8c0 7.1-16.5 12.8-36.8 12.8s-36.8-5.7-36.8-12.8m0 0C23.2 6.7 39.7 1 60 1s36.8 5.7 36.8 12.8M59.6 101c-20.6 0-26.8-7.4-27.1-7.7-.8-1-.6-2.4.3-3.1.9-.8 2.3-.6 3.1.3.1.2 5.6 6.1 23.6 6.1 20.4 0 24.8-5.9 24.9-5.9.7-1 2-1.3 3-.7 1 .7 1.3 2.1.7 3.1-.5.8-5.6 7.9-28.5 7.9z"/></svg>