<?xml version="1.0" encoding="utf-8"?>
<!-- Generator: Adobe Illustrator 19.1.0, SVG Export Plug-In . SVG Version: 6.00 Build 0)  -->
<!DOCTYPE svg PUBLIC "-//W3C//DTD SVG 1.1//EN" "http://www.w3.org/Graphics/SVG/1.1/DTD/svg11.dtd">
<svg version="1.1" id="Layer_1" xmlns="http://www.w3.org/2000/svg" xmlns:xlink="http://www.w3.org/1999/xlink" x="0px" y="0px"
	 viewBox="0 0 75 102" enable-background="new 0 0 75 102" xml:space="preserve">
<path fill="#A5B4B1" d="M0.7,13.8l9.9,75.7c0,5.1,12,9.3,26.9,9.3s26.9-4.2,26.9-9.3l9.9-75.7"/>
<path fill="#668079" d="M74.3,13.8c0,7.1-16.5,12.8-36.8,12.8S0.7,20.9,0.7,13.8 M0.7,13.8C0.7,6.7,17.2,1,37.5,1
	s36.8,5.7,36.8,12.8"/>
<path fill="#668079" d="M36.6,101C16,101,9.8,93.6,9.5,93.3c-0.8-1-0.6-2.4,0.3-3.1c0.9-0.8,2.3-0.6,3.1,0.3
	c0.1,0.2,5.6,6.1,23.6,6.1c20.4,0,24.8-5.9,24.9-5.9c0.7-1,2-1.3,3-0.7c1,0.7,1.3,2.1,0.7,3.1C64.7,93.9,59.6,101,36.6,101z"/>
</svg>
