<?xml version="1.0" encoding="utf-8"?>
<!-- Generator: Adobe Illustrator 19.1.0, SVG Export Plug-In . SVG Version: 6.00 Build 0)  -->
<!DOCTYPE svg PUBLIC "-//W3C//DTD SVG 1.1//EN" "http://www.w3.org/Graphics/SVG/1.1/DTD/svg11.dtd">
<svg version="1.1" id="Layer_1" xmlns="http://www.w3.org/2000/svg" xmlns:xlink="http://www.w3.org/1999/xlink" x="0px" y="0px"
	 viewBox="0 0 120 120" enable-background="new 0 0 120 120" xml:space="preserve">
<g>
	<g>
		<g opacity="0.8">
			<g>
				<path fill="#F2DC32" d="M60,118.1c32.4,0,58.7-9.3,58.7-20.7c0-11.4-26.3-20.7-58.7-20.7S1.2,86,1.2,97.4
					C1.2,108.9,27.5,118.1,60,118.1"/>
			</g>
		</g>
	</g>
</g>
<g>
	<path fill="#60BD72" d="M23.2,14.9l9.9,75.7c0,5.1,12,9.3,26.9,9.3s26.9-4.2,26.9-9.3l9.9-75.7"/>
	<path fill="#0CA54B" d="M96.8,13.8c0,7.1-16.5,12.8-36.8,12.8s-36.8-5.7-36.8-12.8 M23.2,13.8C23.2,6.7,39.7,1,60,1
		s36.8,5.7,36.8,12.8"/>
	<path fill="#0CA54B" d="M59.6,101c-20.6,0-26.8-7.4-27.1-7.7c-0.8-1-0.6-2.4,0.3-3.1c0.9-0.8,2.3-0.6,3.1,0.3
		c0.1,0.2,5.6,6.1,23.6,6.1c20.4,0,24.8-5.9,24.9-5.9c0.7-1,2-1.3,3-0.7c1,0.7,1.3,2.1,0.7,3.1C87.6,93.9,82.5,101,59.6,101z"/>
</g>
</svg>
